<mxfile host="app.diagrams.net" modified="2024-04-28T23:17:14.600Z" agent="Mozilla/5.0 (Windows NT 10.0; Win64; x64) AppleWebKit/537.36 (KHTML, like Gecko) Chrome/124.0.0.0 Safari/537.36" etag="FZREQ8PTHmnxcn5ph_5S" version="24.2.8" type="github">
  <diagram name="Page-1" id="sSfiJyGo0GbiQZMm8w2q">
    <mxGraphModel dx="957" dy="574" grid="1" gridSize="10" guides="1" tooltips="1" connect="1" arrows="1" fold="1" page="1" pageScale="1" pageWidth="1100" pageHeight="850" math="0" shadow="0">
      <root>
        <mxCell id="0" />
        <mxCell id="1" parent="0" />
        <mxCell id="YDWOY1_0RB36UbKSqGbV-1" value="Lihat Dan Tambah Service" style="ellipse;whiteSpace=wrap;html=1;" vertex="1" parent="1">
          <mxGeometry x="170" y="280" width="140" height="70" as="geometry" />
        </mxCell>
        <mxCell id="YDWOY1_0RB36UbKSqGbV-2" value="user&amp;nbsp;" style="shape=umlActor;verticalLabelPosition=bottom;verticalAlign=top;html=1;" vertex="1" parent="1">
          <mxGeometry x="70" y="380" width="20" height="50" as="geometry" />
        </mxCell>
        <mxCell id="YDWOY1_0RB36UbKSqGbV-8" value="Lihat Dan Tambah Detail Service" style="ellipse;whiteSpace=wrap;html=1;" vertex="1" parent="1">
          <mxGeometry x="170" y="380" width="140" height="70" as="geometry" />
        </mxCell>
        <mxCell id="YDWOY1_0RB36UbKSqGbV-9" value="" style="endArrow=open;endFill=1;endSize=12;html=1;rounded=0;exitX=0.5;exitY=0.5;exitDx=0;exitDy=0;exitPerimeter=0;entryX=0;entryY=0.5;entryDx=0;entryDy=0;" edge="1" parent="1" source="YDWOY1_0RB36UbKSqGbV-2" target="YDWOY1_0RB36UbKSqGbV-1">
          <mxGeometry width="160" relative="1" as="geometry">
            <mxPoint x="170" y="510" as="sourcePoint" />
            <mxPoint x="290" y="360" as="targetPoint" />
          </mxGeometry>
        </mxCell>
        <mxCell id="YDWOY1_0RB36UbKSqGbV-10" value="" style="endArrow=open;endFill=1;endSize=12;html=1;rounded=0;exitX=0.5;exitY=0.5;exitDx=0;exitDy=0;exitPerimeter=0;entryX=0;entryY=0.5;entryDx=0;entryDy=0;" edge="1" parent="1" source="YDWOY1_0RB36UbKSqGbV-2" target="YDWOY1_0RB36UbKSqGbV-8">
          <mxGeometry width="160" relative="1" as="geometry">
            <mxPoint x="90" y="415" as="sourcePoint" />
            <mxPoint x="270" y="345" as="targetPoint" />
          </mxGeometry>
        </mxCell>
        <mxCell id="YDWOY1_0RB36UbKSqGbV-11" value="Lihat Kendaraan" style="ellipse;whiteSpace=wrap;html=1;" vertex="1" parent="1">
          <mxGeometry x="170" y="470" width="140" height="70" as="geometry" />
        </mxCell>
        <mxCell id="YDWOY1_0RB36UbKSqGbV-12" value="" style="endArrow=open;endFill=1;endSize=12;html=1;rounded=0;exitX=0.5;exitY=0.5;exitDx=0;exitDy=0;exitPerimeter=0;entryX=0;entryY=0.5;entryDx=0;entryDy=0;" edge="1" parent="1" target="YDWOY1_0RB36UbKSqGbV-11" source="YDWOY1_0RB36UbKSqGbV-2">
          <mxGeometry width="160" relative="1" as="geometry">
            <mxPoint x="70" y="520" as="sourcePoint" />
            <mxPoint x="260" y="460" as="targetPoint" />
          </mxGeometry>
        </mxCell>
        <mxCell id="YDWOY1_0RB36UbKSqGbV-30" value="" style="edgeStyle=orthogonalEdgeStyle;rounded=0;orthogonalLoop=1;jettySize=auto;html=1;" edge="1" parent="1" source="YDWOY1_0RB36UbKSqGbV-13" target="YDWOY1_0RB36UbKSqGbV-26">
          <mxGeometry relative="1" as="geometry" />
        </mxCell>
        <mxCell id="YDWOY1_0RB36UbKSqGbV-13" value="Login" style="ellipse;whiteSpace=wrap;html=1;" vertex="1" parent="1">
          <mxGeometry x="430" y="380" width="140" height="70" as="geometry" />
        </mxCell>
        <mxCell id="YDWOY1_0RB36UbKSqGbV-14" value="Include" style="endArrow=open;endSize=12;dashed=1;html=1;rounded=0;exitX=1;exitY=0.5;exitDx=0;exitDy=0;entryX=0;entryY=0.5;entryDx=0;entryDy=0;" edge="1" parent="1" source="YDWOY1_0RB36UbKSqGbV-1" target="YDWOY1_0RB36UbKSqGbV-13">
          <mxGeometry width="160" relative="1" as="geometry">
            <mxPoint x="410" y="420" as="sourcePoint" />
            <mxPoint x="570" y="420" as="targetPoint" />
          </mxGeometry>
        </mxCell>
        <mxCell id="YDWOY1_0RB36UbKSqGbV-17" value="Include" style="endArrow=open;endSize=12;dashed=1;html=1;rounded=0;entryX=0;entryY=0.5;entryDx=0;entryDy=0;" edge="1" parent="1" source="YDWOY1_0RB36UbKSqGbV-8" target="YDWOY1_0RB36UbKSqGbV-13">
          <mxGeometry width="160" relative="1" as="geometry">
            <mxPoint x="330" y="325" as="sourcePoint" />
            <mxPoint x="440" y="415" as="targetPoint" />
          </mxGeometry>
        </mxCell>
        <mxCell id="YDWOY1_0RB36UbKSqGbV-18" value="Include" style="endArrow=open;endSize=12;dashed=1;html=1;rounded=0;exitX=1;exitY=0.5;exitDx=0;exitDy=0;entryX=0;entryY=0.5;entryDx=0;entryDy=0;" edge="1" parent="1" source="YDWOY1_0RB36UbKSqGbV-11" target="YDWOY1_0RB36UbKSqGbV-13">
          <mxGeometry width="160" relative="1" as="geometry">
            <mxPoint x="340" y="335" as="sourcePoint" />
            <mxPoint x="430" y="420" as="targetPoint" />
          </mxGeometry>
        </mxCell>
        <mxCell id="YDWOY1_0RB36UbKSqGbV-19" value="Kelola User" style="ellipse;whiteSpace=wrap;html=1;flipH=0;flipV=0;" vertex="1" parent="1">
          <mxGeometry x="720" y="280" width="140" height="70" as="geometry" />
        </mxCell>
        <mxCell id="YDWOY1_0RB36UbKSqGbV-20" value="admin" style="shape=umlActor;verticalLabelPosition=bottom;verticalAlign=top;html=1;flipH=0;flipV=0;" vertex="1" parent="1">
          <mxGeometry x="980" y="380" width="20" height="50" as="geometry" />
        </mxCell>
        <mxCell id="YDWOY1_0RB36UbKSqGbV-21" value="Kelola Kendaraan" style="ellipse;whiteSpace=wrap;html=1;flipH=0;flipV=0;" vertex="1" parent="1">
          <mxGeometry x="720" y="380" width="140" height="70" as="geometry" />
        </mxCell>
        <mxCell id="YDWOY1_0RB36UbKSqGbV-22" value="" style="endArrow=open;endFill=1;endSize=12;html=1;rounded=0;exitX=0.5;exitY=0.5;exitDx=0;exitDy=0;exitPerimeter=0;entryX=1;entryY=0.5;entryDx=0;entryDy=0;" edge="1" parent="1" source="YDWOY1_0RB36UbKSqGbV-20" target="YDWOY1_0RB36UbKSqGbV-19">
          <mxGeometry width="160" relative="1" as="geometry">
            <mxPoint x="620.0000000000018" y="505" as="sourcePoint" />
            <mxPoint x="500.0000000000018" y="355" as="targetPoint" />
          </mxGeometry>
        </mxCell>
        <mxCell id="YDWOY1_0RB36UbKSqGbV-23" value="" style="endArrow=open;endFill=1;endSize=12;html=1;rounded=0;exitX=0.5;exitY=0.5;exitDx=0;exitDy=0;exitPerimeter=0;entryX=1;entryY=0.5;entryDx=0;entryDy=0;" edge="1" parent="1" source="YDWOY1_0RB36UbKSqGbV-20" target="YDWOY1_0RB36UbKSqGbV-21">
          <mxGeometry width="160" relative="1" as="geometry">
            <mxPoint x="700.0000000000018" y="410" as="sourcePoint" />
            <mxPoint x="520.0000000000018" y="340" as="targetPoint" />
          </mxGeometry>
        </mxCell>
        <mxCell id="YDWOY1_0RB36UbKSqGbV-24" value="Kelola Service" style="ellipse;whiteSpace=wrap;html=1;flipH=0;flipV=0;" vertex="1" parent="1">
          <mxGeometry x="720" y="470" width="140" height="70" as="geometry" />
        </mxCell>
        <mxCell id="YDWOY1_0RB36UbKSqGbV-25" value="" style="endArrow=open;endFill=1;endSize=12;html=1;rounded=0;exitX=0.5;exitY=0.5;exitDx=0;exitDy=0;exitPerimeter=0;entryX=1;entryY=0.5;entryDx=0;entryDy=0;" edge="1" parent="1" source="YDWOY1_0RB36UbKSqGbV-20" target="YDWOY1_0RB36UbKSqGbV-24">
          <mxGeometry width="160" relative="1" as="geometry">
            <mxPoint x="710.0000000000018" y="515" as="sourcePoint" />
            <mxPoint x="520.0000000000018" y="455" as="targetPoint" />
          </mxGeometry>
        </mxCell>
        <mxCell id="YDWOY1_0RB36UbKSqGbV-28" style="edgeStyle=orthogonalEdgeStyle;rounded=0;orthogonalLoop=1;jettySize=auto;html=1;entryX=0.5;entryY=0;entryDx=0;entryDy=0;" edge="1" parent="1" source="YDWOY1_0RB36UbKSqGbV-26" target="YDWOY1_0RB36UbKSqGbV-27">
          <mxGeometry relative="1" as="geometry" />
        </mxCell>
        <mxCell id="YDWOY1_0RB36UbKSqGbV-26" value="Log Out" style="ellipse;whiteSpace=wrap;html=1;" vertex="1" parent="1">
          <mxGeometry x="430" y="470" width="140" height="70" as="geometry" />
        </mxCell>
        <mxCell id="YDWOY1_0RB36UbKSqGbV-27" value="&amp;nbsp;" style="ellipse;html=1;shape=endState;fillColor=#000000;strokeColor=#ff0000;" vertex="1" parent="1">
          <mxGeometry x="485" y="620" width="30" height="30" as="geometry" />
        </mxCell>
        <mxCell id="YDWOY1_0RB36UbKSqGbV-31" value="Include" style="endArrow=open;endSize=12;dashed=1;html=1;rounded=0;exitX=0;exitY=0.5;exitDx=0;exitDy=0;entryX=1;entryY=0.5;entryDx=0;entryDy=0;" edge="1" parent="1" source="YDWOY1_0RB36UbKSqGbV-19" target="YDWOY1_0RB36UbKSqGbV-13">
          <mxGeometry width="160" relative="1" as="geometry">
            <mxPoint x="330" y="325" as="sourcePoint" />
            <mxPoint x="440" y="425" as="targetPoint" />
          </mxGeometry>
        </mxCell>
        <mxCell id="YDWOY1_0RB36UbKSqGbV-32" value="Include" style="endArrow=open;endSize=12;dashed=1;html=1;rounded=0;entryX=1.012;entryY=0.49;entryDx=0;entryDy=0;entryPerimeter=0;exitX=0;exitY=0.5;exitDx=0;exitDy=0;" edge="1" parent="1" source="YDWOY1_0RB36UbKSqGbV-21" target="YDWOY1_0RB36UbKSqGbV-13">
          <mxGeometry width="160" relative="1" as="geometry">
            <mxPoint x="700" y="410" as="sourcePoint" />
            <mxPoint x="580" y="425" as="targetPoint" />
          </mxGeometry>
        </mxCell>
        <mxCell id="YDWOY1_0RB36UbKSqGbV-33" value="Include" style="endArrow=open;endSize=12;dashed=1;html=1;rounded=0;exitX=-0.019;exitY=0.424;exitDx=0;exitDy=0;entryX=1;entryY=0.5;entryDx=0;entryDy=0;exitPerimeter=0;" edge="1" parent="1" source="YDWOY1_0RB36UbKSqGbV-24" target="YDWOY1_0RB36UbKSqGbV-13">
          <mxGeometry width="160" relative="1" as="geometry">
            <mxPoint x="730" y="330" as="sourcePoint" />
            <mxPoint x="590" y="435" as="targetPoint" />
          </mxGeometry>
        </mxCell>
        <mxCell id="YDWOY1_0RB36UbKSqGbV-35" value="Kelola Detail Service" style="ellipse;whiteSpace=wrap;html=1;flipH=0;flipV=0;" vertex="1" parent="1">
          <mxGeometry x="720" y="570" width="140" height="70" as="geometry" />
        </mxCell>
        <mxCell id="YDWOY1_0RB36UbKSqGbV-36" value="" style="endArrow=open;endFill=1;endSize=12;html=1;rounded=0;exitX=0.5;exitY=0.5;exitDx=0;exitDy=0;exitPerimeter=0;entryX=1;entryY=0.5;entryDx=0;entryDy=0;" edge="1" parent="1" target="YDWOY1_0RB36UbKSqGbV-35" source="YDWOY1_0RB36UbKSqGbV-20">
          <mxGeometry width="160" relative="1" as="geometry">
            <mxPoint x="990" y="510" as="sourcePoint" />
            <mxPoint x="520.0000000000018" y="560" as="targetPoint" />
          </mxGeometry>
        </mxCell>
        <mxCell id="YDWOY1_0RB36UbKSqGbV-37" value="Include" style="endArrow=open;endSize=12;dashed=1;html=1;rounded=0;exitX=-0.019;exitY=0.424;exitDx=0;exitDy=0;entryX=1;entryY=0.5;entryDx=0;entryDy=0;exitPerimeter=0;" edge="1" parent="1" source="YDWOY1_0RB36UbKSqGbV-35" target="YDWOY1_0RB36UbKSqGbV-13">
          <mxGeometry width="160" relative="1" as="geometry">
            <mxPoint x="730" y="435" as="sourcePoint" />
            <mxPoint x="570" y="520" as="targetPoint" />
          </mxGeometry>
        </mxCell>
      </root>
    </mxGraphModel>
  </diagram>
</mxfile>
